<?xml version="1.0" encoding="UTF-8"?>
<svg width="192" height="192" viewBox="0 0 192 192" fill="none" xmlns="http://www.w3.org/2000/svg">
  <rect width="192" height="192" fill="#4F46E5"/>
  <path d="M96 40C65.1 40 40 65.1 40 96s25.1 56 56 56 56-25.1 56-56S126.9 40 96 40zm0 104c-26.5 0-48-21.5-48-48s21.5-48 48-48 48 21.5 48 48-21.5 48-48 48z" fill="#ffffff"/>
  <path d="M96 60c-19.9 0-36 16.1-36 36s16.1 36 36 36 36-16.1 36-36-16.1-36-36-36zm0 56c-11 0-20-9-20-20s9-20 20-20 20 9 20 20-9 20-20 20z" fill="#ffffff"/>
  <circle cx="84" cy="92" r="4" fill="#4F46E5"/>
  <circle cx="108" cy="92" r="4" fill="#4F46E5"/>
</svg>
